<svg xmlns="http://www.w3.org/2000/svg" width="141.972" height="105.777" viewBox="0 0 141.972 105.777"><path fill="#99ADBC" d="M47.218 56.476c.019-.022-.024-.232-.075-.444-.642-3.365-3.811-25.144 18.711-41.914 0 0 15.478-10.955 25.987-5.256-2.106-1.645-5.481-4.259-7.053-5.534C81.19.401 78.561.262 78.561.262 72.662-.291 68.11 1.824 68.11 1.824c-19.091 7.26-22.146 27.759-22.146 27.759-2.644 13.258-.537 21.788.982 26.31.008.022.223.642.272.583"/><path fill="#6F8A9E" d="M85.554 9.688c-.371 1.601-1.339 4.837-8.083 8.601-1.134.64-1.525.716-2.319 1.195-.658.407-2.073 1.575-.536 3.201.723.767 6.825 5.023 10.501 7.815.44-.343.997-.794 1.249-1.005.144-.118.117-.095.164-.135 1.491-1.263 3.235-3.193 4.928-5.879 1.888-3.049 3.041-6.605 1.586-9.721-.001-.001-1.358-3.731-7.49-4.072"/><path fill="#99ADBC" d="M84.253 31.403c-3.455-2.323-5.319-3.387-11.573-6.795 0 0-1.783-.862-1.89-1.883 0 0-.013-.032-.01-.093-.032.565-.566 9.174-1.945 15.87-.049.283-.218.929-.117 1.854.158 1.386 1.001 2.297 1.388 2.737.591.667 3.746 3.463 11.259 9.003 3.332 2.458 8.725 7.281 8.924 12.474.004.069-.004.961-.147 1.497a6.11 6.11 0 0 1-.247.892c-.007.037-.036.113-.036.113 0 .009.009.034.021.021.029-.006.039-.063.071-.12.021-.027.051-.074.097-.146.243-.414 4.659-9.3 5.486-11.249.493-1.16 4.052-6.771-1.9-15.317-.001 0-2.624-4.048-9.381-8.858"/><path fill="#6F8A9E" d="M86.061 59.487c-.18-.291-.363-.609-.574-.934 0 0-10.208 7.869-23.893 1.104 0 0-10.685-4.896-11.844-17.165-.121.515-.23 1.041-.33 1.571-3.649 18.667 10.273 29.466 24.004 29.64 10.432.129 17.311-6.564 12.637-14.216M24.789 96.905h7.343v-3.132h-7.343v-5.258h8.993v-3.136H21.039v20.047H34.25v-3.129h-9.461zm91.572.061v-.062c2.163-.849 3.472-3.081 3.472-5.47 0-2.673-1.309-4.582-3.363-5.481-.896-.405-1.915-.574-4.146-.574h-7.057v20.056h3.74v-7.483h4.006l4.104 7.483h4.168l-4.245-7.483c-.399-.709-.679-.986-.679-.986m-3.581-2.188h-3.772v-6.261h3.258c2.931 0 3.767 1.188 3.767 3.11-.001 1.993-1.246 3.151-3.253 3.151m-101.149.116v-.059c1.569-.817 2.492-2.424 2.492-4.287 0-3.299-2.64-5.169-6.343-5.169H0v20.056h7.86c3.803 0 7.107-1.808 7.107-5.817 0-2.044-1.066-4.065-3.336-4.724m-7.939-6.41h4.029c1.746 0 2.623 1.051 2.623 2.5 0 1.461-.931 2.588-2.553 2.588H3.692v-5.088zm4.476 13.875H3.692v-5.848h4.476c1.884 0 2.99 1.221 2.99 2.897 0 1.719-1.073 2.951-2.99 2.951m36.121-16.98h-3.74v20.056h13.052v-3.142h-9.312zm90.908 0h-8.362v20.056h3.746v-6.93h4.616c3.86 0 6.546-2.703 6.546-6.597 0-3.906-2.685-6.529-6.546-6.529m-.701 9.972h-3.915v-6.838h3.983c2.114 0 3.385 1.322 3.385 3.396 0 2.086-1.27 3.442-3.453 3.442m-67.387 7.088c-4.293 0-6.937-3.359-6.937-7.165 0-3.741 2.551-6.892 6.905-6.892 3.272 0 5.633 2.115 5.633 2.115l1.786-2.724s-2.578-2.729-7.591-2.729c-6.073 0-10.587 4.46-10.587 10.283 0 5.9 4.348 10.446 10.643 10.446 5.249 0 8.094-3.249 8.094-3.249l-1.978-2.623c.001.002-2.406 2.538-5.968 2.538m22.14-17.394c-6.064 0-10.65 4.48-10.65 10.229 0 5.902 4.586 10.504 10.65 10.504 6.056 0 10.646-4.602 10.646-10.504.001-5.748-4.59-10.229-10.646-10.229m0 17.394c-3.775 0-6.786-3.047-6.786-7.165 0-3.963 3.011-6.892 6.786-6.892 3.763 0 6.782 2.929 6.782 6.892 0 4.118-3.019 7.165-6.782 7.165"/></svg>